<svg xmlns="http://www.w3.org/2000/svg" viewBox="0 0 512 512" role="img" aria-label="Vault 4">
  <rect width="512" height="512" fill="#050a09" />
  <g stroke="#00ff7a" stroke-opacity="0.18" stroke-width="1">
    <line x1="64" y1="0" x2="64" y2="512" />
    <line x1="128" y1="0" x2="128" y2="512" />
    <line x1="192" y1="0" x2="192" y2="512" />
    <line x1="256" y1="0" x2="256" y2="512" />
    <line x1="320" y1="0" x2="320" y2="512" />
    <line x1="384" y1="0" x2="384" y2="512" />
    <line x1="448" y1="0" x2="448" y2="512" />
    <line x1="0" y1="64" x2="512" y2="64" />
    <line x1="0" y1="128" x2="512" y2="128" />
    <line x1="0" y1="192" x2="512" y2="192" />
    <line x1="0" y1="256" x2="512" y2="256" />
    <line x1="0" y1="320" x2="512" y2="320" />
    <line x1="0" y1="384" x2="512" y2="384" />
    <line x1="0" y1="448" x2="512" y2="448" />
  </g>
  <rect x="12" y="12" width="488" height="488" fill="none" stroke="#00ff5a" stroke-opacity="0.8" stroke-width="3" />
  <g stroke="#00ff5a" stroke-opacity="0.25" stroke-width="18" stroke-linecap="round" stroke-linejoin="round">
    <line x1="150" y1="140" x2="256" y2="360" />
    <line x1="256" y1="360" x2="300" y2="140" />
    <line x1="330" y1="140" x2="330" y2="360" />
    <line x1="290" y1="240" x2="330" y2="240" />
    <line x1="290" y1="140" x2="330" y2="240" />
  </g>
  <g stroke="#00ff5a" stroke-width="6" stroke-linecap="round" stroke-linejoin="round">
    <line x1="150" y1="140" x2="256" y2="360" />
    <line x1="256" y1="360" x2="300" y2="140" />
    <line x1="330" y1="140" x2="330" y2="360" />
    <line x1="290" y1="240" x2="330" y2="240" />
    <line x1="290" y1="140" x2="330" y2="240" />
  </g>
  <rect x="392" y="372" width="30" height="30" fill="#00ff5a" fill-opacity="0.9" />
</svg>
